<svg id="图层_1" data-name="图层 1" xmlns="http://www.w3.org/2000/svg" viewBox="0 0 366.59 425.92"><defs><style>.cls-1{fill:#898c9d;}</style></defs><title>icon-FAQ1</title><g id="_编组_" data-name="&lt;编组&gt;"><g id="_编组_2" data-name="&lt;编组&gt;"><path class="cls-1" d="M406,713H308.45V400.28h36.83V676.13H406c51.8,0,94.66-16.63,127.38-49.43s49.13-76.85,49.13-131.28c0-52-16.49-94-49-124.83-32.74-31-74.46-46.72-124-46.72H308.34V287h101.1c59.28,0,109.52,19.11,149.33,56.81,40.16,38,60.52,89,60.52,151.57,0,64.54-20.15,117.46-59.88,157.29S467.9,713,406,713Z" transform="translate(-252.7 -287.04)"/></g></g><g id="_编组_3" data-name="&lt;编组&gt;"><path class="cls-1" d="M364.37,651.12h0c54.13,0,99.17-14.4,133.86-42.81,35.17-28.79,53-67.47,53-115,0-45.76-17.91-82.82-53.24-110.15-34.65-26.8-78.47-38.66-130.25-38.66h-115V651.12H289V380.27h82.34c20.84,0,40.13,2.69,57.33,8,17,5.25,32.53,11.5,46.08,22,13.32,10.3,23.43,22.49,30,36.22s10,29.73,10,47.27c0,18.42-3.4,35.17-10.11,49.78S488,570.92,474.58,581.87a140.37,140.37,0,0,1-46.7,25.06c-17.67,5.62-37.69,8.47-59.5,8.47l-4,.13Z" transform="translate(-252.7 -287.04)"/></g></svg>