<svg id="图层_1" data-name="图层 1" xmlns="http://www.w3.org/2000/svg" viewBox="0 0 204.18 153.62"><defs><style>.cls-1{fill:#898c9d;}</style></defs><title>icon-FAQ2</title><g id="控件"><g id="img_fqa_1" data-name="img fqa 1"><path id="img_fqa_5" data-name="img fqa 5" class="cls-1" d="M822.76,551.27c0-3.4-3.4-6.12-6.8-6.12H758.18a7.32,7.32,0,0,0-6.8,5.44L727.6,689.93a5.29,5.29,0,0,0,1.36,5.44c1.36,1.36,3.4,2.72,5.44,2.72h94.48c2,0,4.08-1.36,5.44-2.72,1.36-2,1.36-3.4.68-6.12Zm86.33,66.61a6.18,6.18,0,0,0,5.44-2.72,6.52,6.52,0,0,0,1.36-6.12L903,549.91a6.62,6.62,0,0,0-6.8-5.44H837.71a6.18,6.18,0,0,0-5.44,2.72,6.52,6.52,0,0,0-1.36,6.12l12.91,59.14a6.62,6.62,0,0,0,6.8,5.44Zm9.52,12.24a6.62,6.62,0,0,0-6.8-5.44H853.35a6.18,6.18,0,0,0-5.44,2.72,6.52,6.52,0,0,0-1.36,6.12l12.91,59.14a6.62,6.62,0,0,0,6.8,5.44h58.46a6.18,6.18,0,0,0,5.44-2.72c1.36-2,1.36-4.08,1.36-6.12L918.6,630.12Z" transform="translate(-727.33 -544.47)"/></g></g></svg>