<svg id="图层_1" data-name="图层 1" xmlns="http://www.w3.org/2000/svg" viewBox="0 0 232 232"><defs><style>.cls-1{fill:#898c9d;}.cls-2{fill:#fff;}</style></defs><title>icon-FAQ3</title><circle class="cls-1" cx="116" cy="116" r="116"/><path class="cls-2" d="M670.16,148.07q0-6.87-2.87-10.87t-10.3-8q-16.16-6.3-23.83-14.3t-7.67-22.86q0-13.49,7.75-22.18t21-10.22v-17H666V60q12.68,2.1,19.91,11.39t7.23,24.4H670.4q0-9-3.07-13.77a9.57,9.57,0,0,0-8.48-4.81q-5.65,0-8.12,4.08t-2.46,10.87q0,6.3,2.75,10.1t10.58,8.24q15.67,5.82,23.51,14.22t7.84,23.19q0,13.9-7.63,22.26t-20.88,9.9v16H652.62V180.14q-13.57-1.54-22.22-10.42t-8.32-26.09l.16-.4h22.13q0,10.58,3.84,15.11a12.81,12.81,0,0,0,10.3,4.52q6,0,8.81-4T670.16,148.07Z" transform="translate(-541.59 -3.35)"/></svg>