<svg id="图层_1" data-name="图层 1" xmlns="http://www.w3.org/2000/svg" viewBox="0 0 841.18 868.35"><defs><style>.cls-1{fill:#898c9d;}</style></defs><title>icon-FAQ4</title><g id="控件"><g id="img_fqa_1" data-name="img fqa 1"><path id="img_fqa_2" data-name="img fqa 2" class="cls-1" d="M972.24,388.94C1061.86,58,910.5,41.12,910.5,41.12c-64.15,0-50.85,50.72-55.71,59.18,0,161.83-171.92,288.64-171.92,288.64V847.85c0,45.3,61.75,61.62,86,61.62h347.48c32.71,0,59.33-85.75,59.33-85.75,86-292.27,86-379.23,86-379.23,0-60.38-58.11-55.56-58.11-55.56ZM588,389.09H449.49c-28.6,0-29,28.09-29,28.09L449,880c0,29.46,29.51,29.46,29.51,29.46H598.42c25,0,24.75-19.49,24.75-19.49V424.18c0-35.54-35.2-35.1-35.2-35.1Z" transform="translate(-420.44 -41.12)"/></g></g></svg>