<svg id="图层_1" data-name="图层 1" xmlns="http://www.w3.org/2000/svg" viewBox="0 0 663.94 758.92"><defs><style>.cls-1{fill:#898c9d;}</style></defs><title>icon-FAQ5</title><g id="控件"><g id="img_fqa_1" data-name="img fqa 1"><path id="img_fqa_6" data-name="img fqa 6" class="cls-1" d="M1477.87,294.2a25.61,25.61,0,0,0-18-7.11c-76.35,0-237.12-83-292.61-114.77a26.08,26.08,0,0,0-27.51,0c-55,31.77-216.25,114.77-292.61,114.77a25.61,25.61,0,0,0-18,7.11,22.76,22.76,0,0,0-7.59,16.6V571.63c0,183.06,241.39,355.68,332,355.68s332-172.62,332-355.68V310.8A22.76,22.76,0,0,0,1477.87,294.2Zm-156,206.3L1153.49,654.62a43.15,43.15,0,0,1-58.33,0l-110-102.91a37.47,37.47,0,0,1,0-55,44.58,44.58,0,0,1,58.81,0l81.57,75.88L1263,445.48a43.63,43.63,0,0,1,58.81,0,37,37,0,0,1,0,55Z" transform="translate(-821.52 -168.4)"/></g></g></svg>