<?xml version="1.0" encoding="UTF-8"?>
<svg width="22px" height="22px" viewBox="0 0 22 22" version="1.1" xmlns="http://www.w3.org/2000/svg" xmlns:xlink="http://www.w3.org/1999/xlink">
    <!-- Generator: Sketch 61.2 (89653) - https://sketch.com -->
    <title>img_fqa_6</title>
    <desc>Created with Sketch.</desc>
    <g id="控件" stroke="none" stroke-width="1" fill="none" fill-rule="evenodd">
        <g id="img_fqa_1" transform="translate(1.000000, -632.000000)" fill="#898C9D" fill-rule="nonzero">
            <path d="M18.7795586,635.599416 C18.6409703,635.466665 18.4558317,635.393584 18.2639349,635.39588 C16.0793187,635.39588 11.4794124,633.021297 9.89183411,632.112171 C9.65081623,631.96261 9.34584739,631.96261 9.10482951,632.112171 C7.53082028,633.021297 2.91734497,635.39588 0.732728727,635.39588 C0.540831936,635.393584 0.355693332,635.466665 0.217105022,635.599416 C0.0816663314,635.720513 0.00296320715,635.892676 3.12095835e-07,636.074333 L3.12095835e-07,643.537307 C3.12095835e-07,648.774959 6.90664421,653.714091 9.49833181,653.714091 C12.0900194,653.714091 18.9966633,648.774959 18.9966633,643.537307 L18.9966633,636.074333 C18.9937004,635.892676 18.9149973,635.720513 18.7795586,635.599416 Z M14.3153428,641.501951 L9.49833181,645.91189 C9.0262121,646.344784 8.30145899,646.344784 7.82933927,645.91189 L4.68132084,642.967407 C4.46192207,642.76451 4.33717829,642.479239 4.33717829,642.180403 C4.33717829,641.881567 4.46192207,641.596295 4.68132084,641.393398 C5.16265256,640.971023 5.8825507,640.971023 6.36388242,641.393398 L8.69775815,643.564445 L12.6327812,639.927941 C13.1093884,639.4932 13.8387356,639.4932 14.3153428,639.927941 C14.5385692,640.128667 14.6660535,640.414745 14.6660535,640.714946 C14.6660535,641.015147 14.5385692,641.301225 14.3153428,641.501951 L14.3153428,641.501951 Z" id="img_fqa_6"></path>
        </g>
    </g>
</svg>