<?xml version="1.0" encoding="UTF-8"?>
<svg width="22px" height="22px" viewBox="0 0 22 22" version="1.1" xmlns="http://www.w3.org/2000/svg" xmlns:xlink="http://www.w3.org/1999/xlink">
    <!-- Generator: Sketch 61.2 (89653) - https://sketch.com -->
    <title>img_fqa_7</title>
    <desc>Created with Sketch.</desc>
    <g id="控件" stroke="none" stroke-width="1" fill="none" fill-rule="evenodd">
        <g id="img_fqa_1" transform="translate(1.000000, -721.000000)" fill="#898C9D" fill-rule="nonzero">
            <path d="M14.3253487,735.495078 C13.4815673,735.495078 12.7886607,734.802172 12.7886607,733.95839 L12.7886607,732.97491 C12.7886607,732.129732 13.4815673,731.438222 14.3253487,731.438222 L19.9077172,731.438222 L19.9077172,728.261469 C19.9077172,727.417687 19.2148106,726.724781 18.3710292,726.724781 L1.55686828,726.724781 C0.711689878,726.724781 0.0201802495,727.417687 0.0201802495,728.261469 L0.0201802495,739.778247 C0.0201802495,740.623425 0.711689857,741.314935 1.55686828,741.314935 L18.3710292,741.314935 C19.2148106,741.314935 19.9077172,740.623425 19.9077172,739.778247 L19.9077172,735.495078 L14.3253487,735.495078 Z M17.0774172,725.749682 L15.4541159,722.811814 C15.0427836,722.071663 14.1109211,721.802652 13.3684112,722.209712 L6.96181913,725.749682 L17.0760203,725.749682 L17.0774172,725.749682 Z" id="img_fqa_7"></path>
        </g>
    </g>
</svg>