<?xml version="1.0" standalone="no"?><!DOCTYPE svg PUBLIC "-//W3C//DTD SVG 1.1//EN" "http://www.w3.org/Graphics/SVG/1.1/DTD/svg11.dtd"><svg t="1561003201581" class="icon" style="" viewBox="0 0 1024 1024" version="1.1" xmlns="http://www.w3.org/2000/svg" p-id="3532" xmlns:xlink="http://www.w3.org/1999/xlink" width="200" height="200"><defs><style type="text/css"></style></defs><path d="M512 195.2L741.6 272 512 348.8 282.4 272 512 195.2m0-67.2L128 256v32l384 128 384-128v-32L512 128z m0 389.6l-320-104h-64v32l384 128 384-128v-32h-64l-320 104z m0 162.4L192 576h-64v32l384 128 384-128v-32h-64L512 680z m0 160L192 736h-64v32l384 128 384-128v-32h-64L512 840z" p-id="3533"></path></svg>