<svg id="图层_1" data-name="图层 1" xmlns="http://www.w3.org/2000/svg" xmlns:xlink="http://www.w3.org/1999/xlink" viewBox="0 0 60 60"><defs><style>.cls-1{fill:#f9fafb;}.cls-2{fill:url(#未命名的渐变_10);}.cls-3{fill:#fff;}</style><linearGradient id="未命名的渐变_10" x1="513.97" y1="553.5" x2="513.97" y2="478.7" gradientTransform="matrix(1, 0, 0, -1, 0, 1029)" gradientUnits="userSpaceOnUse"><stop offset="0" stop-color="#f9a606"/><stop offset="1" stop-color="#fbcc5f"/></linearGradient></defs><title>23</title><circle class="cls-1" cx="30" cy="30" r="30"/><path class="cls-2" d="M514,544a30,30,0,1,0-30-30A30,30,0,0,0,514,544Z" transform="translate(-483.97 -484)"/><path class="cls-3" d="M531.13,509h-3.56c-2-5.44-7.23-9.17-14.18-9.17H502V509h-4v3.29h4v3.45h-4v3.29h4v9.06h11.43c6.87,0,12.1-3.7,14.11-9.06h3.63v-3.29H528.3a14.92,14.92,0,0,0,.11-1.78v-.08c0-.54,0-1.07-.08-1.59h2.81V509Zm-26-6.24h8.23c5.1,0,8.89,2.51,10.64,6.23H505.16Zm8.23,22.37h-8.23v-6.11H524C522.25,522.73,518.47,525.18,513.39,525.18Zm11.71-11.1a11.84,11.84,0,0,1-.12,1.7H505.16v-3.45H525a13,13,0,0,1,.11,1.67Z" transform="translate(-483.97 -484)"/></svg>