<svg id="图层_1" data-name="图层 1" xmlns="http://www.w3.org/2000/svg" viewBox="0 0 69 69"><defs><style>.cls-1{fill:#2674ca;}.cls-2{fill:#fff;}</style></defs><title>USDC</title><circle class="cls-1" cx="34.5" cy="34.5" r="34.5"/><path class="cls-2" d="M734.33,496.92a1.48,1.48,0,0,1-1.48-1.48,27.49,27.49,0,0,1,17.48-25.49,1.48,1.48,0,0,1,1.06,2.76,24.51,24.51,0,0,0-15.59,22.73A1.48,1.48,0,0,1,734.33,496.92Z" transform="translate(-725.66 -461.28)"/><path class="cls-2" d="M786,496.92a1.48,1.48,0,0,1-1.48-1.48,24.35,24.35,0,0,0-14.69-22.36,1.48,1.48,0,1,1,1.17-2.71,27.31,27.31,0,0,1,16.48,25.08A1.48,1.48,0,0,1,786,496.92Z" transform="translate(-725.66 -461.28)"/><path class="cls-2" d="M734.33,496.92a1.48,1.48,0,0,1-1.48-1.48,27.49,27.49,0,0,1,17.48-25.49,1.48,1.48,0,0,1,1.06,2.76,24.51,24.51,0,0,0-15.59,22.73A1.48,1.48,0,0,1,734.33,496.92Z" transform="translate(-725.66 -461.28)"/><path class="cls-2" d="M786,496.92a1.48,1.48,0,0,1-1.48-1.48,24.35,24.35,0,0,0-14.69-22.36,1.48,1.48,0,1,1,1.17-2.71,27.31,27.31,0,0,1,16.48,25.08A1.48,1.48,0,0,1,786,496.92Z" transform="translate(-725.66 -461.28)"/><path class="cls-2" d="M750.86,521.72a1.46,1.46,0,0,1-.53-.1,27.49,27.49,0,0,1-17.48-25.49,1.48,1.48,0,1,1,3,0,24.51,24.51,0,0,0,15.59,22.73,1.48,1.48,0,0,1-.53,2.86Z" transform="translate(-725.66 -461.28)"/><path class="cls-2" d="M770.41,521.33a1.48,1.48,0,0,1-.59-2.84,24.35,24.35,0,0,0,14.69-22.36,1.48,1.48,0,1,1,3,0A27.31,27.31,0,0,1,771,521.21,1.47,1.47,0,0,1,770.41,521.33Z" transform="translate(-725.66 -461.28)"/><path class="cls-2" d="M766.3,504.16a4.78,4.78,0,0,0-1.45-3.51,12.59,12.59,0,0,0-4.81-2.59,16.58,16.58,0,0,1-7-3.72,8.35,8.35,0,0,1-2.35-6.21,8.76,8.76,0,0,1,2.17-6.15,9.35,9.35,0,0,1,6-2.86v-5h3.61v5.07a8.73,8.73,0,0,1,5.93,3.13,10.91,10.91,0,0,1,2.11,7H766a7.32,7.32,0,0,0-1.44-4.71,4.81,4.81,0,0,0-4-1.8,4.81,4.81,0,0,0-5.39,5.25,4.81,4.81,0,0,0,1.39,3.59,13.65,13.65,0,0,0,5,2.6,17.29,17.29,0,0,1,6.92,3.76,8.24,8.24,0,0,1,2.26,6.11,8.38,8.38,0,0,1-2.35,6.25,10.46,10.46,0,0,1-6.47,2.75v4.39h-3.59v-4.36a10.47,10.47,0,0,1-6.44-2.87q-2.51-2.46-2.42-7.21l0-.11h4.34q0,3.52,1.78,5a6.52,6.52,0,0,0,4.34,1.5,6.9,6.9,0,0,0,4.6-1.41A4.83,4.83,0,0,0,766.3,504.16Z" transform="translate(-725.66 -461.28)"/></svg>