<svg id="图层_1" data-name="图层 1" xmlns="http://www.w3.org/2000/svg" viewBox="0 0 30 30"><defs><style>.cls-1{fill:#49475f;}.cls-2{fill:#fff;}</style></defs><title>社区图标-5</title><circle class="cls-1" cx="15" cy="15" r="15"/><path class="cls-2" d="M445.57,457.51a1.83,1.83,0,1,1,1.69-1.83A1.76,1.76,0,0,1,445.57,457.51Zm-6.2,0a1.83,1.83,0,1,1,1.69-1.83A1.76,1.76,0,0,1,439.37,457.51Zm12.39-3a21.41,21.41,0,0,0-1.87-5.16,8.26,8.26,0,0,0-4.77-1.77l-.15.24a10.64,10.64,0,0,1,4.38,2.18,14.89,14.89,0,0,0-13.79,0,10.65,10.65,0,0,1,4.38-2.18l-.15-.24a8.26,8.26,0,0,0-4.77,1.77,21.4,21.4,0,0,0-1.87,5.16,27.81,27.81,0,0,0-.55,4.61A6.41,6.41,0,0,0,434.8,461a6.71,6.71,0,0,0,3,.7l1.15-1.38a6.37,6.37,0,0,1-2.95-2,12.15,12.15,0,0,0,13,0,6.37,6.37,0,0,1-2.95,2l1.15,1.38a6.71,6.71,0,0,0,3-.7,6.41,6.41,0,0,0,2.17-1.86,27.82,27.82,0,0,0-.55-4.61Z" transform="translate(-427.47 -439.62)"/></svg>