<svg id="图层_1" data-name="图层 1" xmlns="http://www.w3.org/2000/svg" xmlns:xlink="http://www.w3.org/1999/xlink" viewBox="0 0 324.88 324.88"><defs><style>.cls-1{fill:#fff;}.cls-1,.cls-3,.cls-5{fill-rule:evenodd;}.cls-2{fill:#3c65f0;}.cls-3{fill:#96caff;}.cls-4{mask:url(#mask);}.cls-5{fill:#cadefc;}.cls-6{mask:url(#mask-2);}.cls-7{mask:url(#mask-3);}.cls-8{fill:#ffb361;}</style><mask id="mask" x="72.79" y="39.85" width="159.84" height="235.44" maskUnits="userSpaceOnUse"><g transform="translate(-212.12 -212.52)"><g id="mask-5"><path id="path-4" class="cls-1" d="M358,252.37q1.22,32.43-49.09,94.48c-55.74,71.67-4.55,139.07,51.76,139.07s107.62-59.71,59.53-131.39C407.81,334.15,380.6,303,377,291.76c-12.66,24.38-7.59,48.26-16.29,68.18-7.71,20.3,25.45,49.65,1.41,48-18.35-2.86-17.62-25.77-16.07-31.14Q372.38,285.65,358,252.37Z"/></g></g></mask><mask id="mask-2" x="72.79" y="39.85" width="154.43" height="233.55" maskUnits="userSpaceOnUse"><g transform="translate(-212.12 -212.52)"><g id="mask-5-2" data-name="mask-5"><path id="path-4-2" data-name="path-4" class="cls-1" d="M358,252.37q1.22,32.43-49.09,94.48c-55.74,71.67-4.55,139.07,51.76,139.07s107.62-59.71,59.53-131.39C407.81,334.15,380.6,303,377,291.76c-12.66,24.38-7.59,48.26-16.29,68.18-7.71,20.3,25.45,49.65,1.41,48-18.35-2.86-17.62-25.77-16.07-31.14Q372.38,285.65,358,252.37Z"/></g></g></mask><mask id="mask-3" x="72.79" y="37.13" width="154.43" height="242.41" maskUnits="userSpaceOnUse"><g transform="translate(-212.12 -212.52)"><g id="mask-5-3" data-name="mask-5"><path id="path-4-3" data-name="path-4" class="cls-1" d="M358,252.37q1.22,32.43-49.09,94.48c-55.74,71.67-4.55,139.07,51.76,139.07s107.62-59.71,59.53-131.39C407.81,334.15,380.6,303,377,291.76c-12.66,24.38-7.59,48.26-16.29,68.18-7.71,20.3,25.45,49.65,1.41,48-18.35-2.86-17.62-25.77-16.07-31.14Q372.38,285.65,358,252.37Z"/></g></g></mask></defs><title>HBTC-logo</title><circle class="cls-2" cx="162.44" cy="162.44" r="162.44"/><path class="cls-3" d="M358,252.37q1.22,32.43-49.09,94.48c-55.74,71.67-4.55,139.07,51.76,139.07s107.62-59.71,59.53-131.39C407.81,334.15,380.6,303,377,291.76c-12.66,24.38-7.59,48.26-16.29,68.18-7.71,20.3,25.45,49.65,1.41,48-18.35-2.86-17.62-25.77-16.07-31.14Q372.38,285.65,358,252.37Z" transform="translate(-212.12 -212.52)"/><g class="cls-4"><path class="cls-5" d="M328.73,369c-20.46,44.93,0,104.19,32,116.88s129-39.26,59.53-131.39C407.81,334.15,380.6,303,377,291.76c-5,5.65-12.19,33.88-4.22,62.77s13.38,55.06-10.66,53.43c-18.35-2.86-17.62-25.77-16.07-31.14C372.38,285.65,379,307,328.73,369Z" transform="translate(-212.12 -212.52)"/></g><g class="cls-6"><path id="路径-21" class="cls-3" d="M379.42,286.62q-10.31,17.74,4,56.53c14.35,38.79,40.89,87.9-4,106.65-27.84,9.68-58-22-37.65-93.55Q362.13,284.74,379.42,286.62Z" transform="translate(-212.12 -212.52)"/></g><g class="cls-7"><path id="路径-20" class="cls-5" d="M357.58,249.65q1.7,52.39-24.07,97.09c-25.77,44.71-56.78,114.54,7.42,136.53q64.21,22,65.07-11-46.53,21.51-65.07-27.52c-7.07-16.35,2.71-63.23,5.12-67.91q2.41-4.68,26-100.5Z" transform="translate(-212.12 -212.52)"/></g><ellipse class="cls-2" cx="208.75" cy="205.21" rx="87.02" ry="88.84"/><g id="形状结合"><path class="cls-8" d="M417.29,352.72a66.77,66.77,0,1,1-66.77,66.77A66.77,66.77,0,0,1,417.29,352.72Zm-1.48,17.9-3.66,13.67L396.3,380a1.48,1.48,0,0,0-1.82,1l-1.28,4.76a1.48,1.48,0,0,0,.91,1.77c5.28,1.94,7.22,6.28,6.05,10.66l-7.83,29.23c-1.06,3.94-4,6.51-8.6,5.73a1.48,1.48,0,0,0-1.6.79l-2.21,4.56a1.45,1.45,0,0,0,1,2l15.09,4-3.66,13.67a1.48,1.48,0,0,0,1.06,1.8l4.8,1.29a1.48,1.48,0,0,0,1.82-1l3.66-13.67,7.68,2.06-3.66,13.67a1.48,1.48,0,0,0,1.06,1.8l4.8,1.29a1.48,1.48,0,0,0,1.82-1L419,450.81l6.48,1.74c9.15,2.45,18.66-3.37,21.24-13a18.28,18.28,0,0,0-3.4-16.4,19,19,0,0,0,6.33-9.86c2.62-9.76-2.68-19.67-11.83-22.12l-2.64-.71,3.66-13.67a1.48,1.48,0,0,0-1.06-1.8L433,373.7a1.48,1.48,0,0,0-1.82,1l-3.66,13.67-7.68-2.06,3.66-13.67a1.48,1.48,0,0,0-1.06-1.8l-4.8-1.29A1.48,1.48,0,0,0,415.81,370.61Zm-5.08,49.68,15.6,4.18A8.06,8.06,0,1,1,422.17,440l-15.6-4.18Zm6.06-22.63,11.76,3.15a8.06,8.06,0,1,1-4.17,15.56l-11.76-3.15Z" transform="translate(-212.12 -212.52)"/></g></svg>