<svg id="图层_1" data-name="图层 1" xmlns="http://www.w3.org/2000/svg" xmlns:xlink="http://www.w3.org/1999/xlink" viewBox="0 0 70 70"><defs><style>.cls-1{fill:url(#未命名的渐变_4);}.cls-2{fill:#fff;}</style><linearGradient id="未命名的渐变_4" x1="35" y1="70" x2="35" gradientUnits="userSpaceOnUse"><stop offset="0.06" stop-color="#21213e"/><stop offset="1" stop-color="#7a7bbd"/></linearGradient></defs><title>imBTC-logo</title><circle class="cls-1" cx="35" cy="35" r="35"/><path class="cls-2" d="M273,258.66a14.28,14.28,0,0,0-6.92-2.71,14.09,14.09,0,0,0,5.87-2.64,5.23,5.23,0,0,0,1.95-4.11,5.74,5.74,0,0,0-3-5.08q-2.16-1.36-7.07-1.73v-6h-2.36v5.86l-1.63,0h-1.71l-1.19,0v-5.87h-2.36v5.94l-8.47.23v2.36q2.56,0,3.32.74a3.9,3.9,0,0,1,.76,2.79V265.4a3.73,3.73,0,0,1-.81,2.82,5.23,5.23,0,0,1-3.27.71v2.36h8.47v6.29H257v-6.29h4.53v6.29h2.36v-6.31q5.82-.18,8.48-2a6.7,6.7,0,0,0,.65-10.61Zm-14.57-13.89a15.67,15.67,0,0,1,3.77.34,3.52,3.52,0,0,1,2.06,1.51,5.67,5.67,0,0,1,.78,3.19q0,2.7-1.25,3.8a5.59,5.59,0,0,1-3.78,1.1h-1.59Zm6.77,22.56a3.88,3.88,0,0,1-3.29,1.43,4.67,4.67,0,0,1-2.18-.42,2.19,2.19,0,0,1-1-1,4.78,4.78,0,0,1-.27-1.81v-8.19h1.5a11.55,11.55,0,0,1,3.69.45,3.61,3.61,0,0,1,2,1.73,7.4,7.4,0,0,1,.71,3.57A7,7,0,0,1,265.19,267.33Z" transform="translate(-224.73 -222)"/></svg>