<svg id="图层_1" data-name="图层 1" xmlns="http://www.w3.org/2000/svg" viewBox="0 0 389.32 467.2"><defs><style>.cls-1{fill:#29bb92;}</style></defs><title>icon-suo</title><path class="cls-1" d="M696.66,361.68a19.47,19.47,0,0,1-19.48-19.48V283.8a77.86,77.86,0,1,0-155.72,0v58.4a19.46,19.46,0,1,1-38.92,0V283.8a116.8,116.8,0,1,1,233.6,0v58.4a19.47,19.47,0,0,1-19.48,19.48Z" transform="translate(-404.66 -167)"/><path class="cls-1" d="M744.11,322.76H454.53a49.91,49.91,0,0,0-49.87,49.87v211.7a49.9,49.9,0,0,0,49.87,49.87H744.16A49.87,49.87,0,0,0,794,584.33V372.63A49.91,49.91,0,0,0,744.11,322.76ZM618.82,517.4a19.48,19.48,0,1,1-39,0V439.52a19.48,19.48,0,0,1,39,0Z" transform="translate(-404.66 -167)"/></svg>