<svg id="图层_1" data-name="图层 1" xmlns="http://www.w3.org/2000/svg" viewBox="0 0 292.25 48.88"><defs><style>.cls-1{fill:#29bb92;}.cls-2{fill:#345af7;}</style></defs><title>xswap-logo</title><path class="cls-1" d="M484.79,389.9c-.67-.49-1.35-1-2-1.49-2.23-1.71-2.78-4.19-1.36-6.15s4.05-2.14,6.28-.52c3.56,2.59,7.09,5.2,10.64,7.8s7.23,5.27,10.86,7.89c6.3,4.56,6.41,11,.13,15.48-7.33,5.25-14.75,10.38-22.16,15.53-2.4,1.67-4.78,1.34-6.18-.72s-.73-4.41,1.61-6.06c6.74-4.78,13.51-9.52,20.26-14.29,2.26-1.6,2.26-2.66,0-4.29q-7.69-5.65-15.4-11.28C486.68,391,485.62,390.62,484.79,389.9Z" transform="translate(-480.28 -380.65)"/><path class="cls-2" d="M518.92,404.69a7.55,7.55,0,0,1,3.1-5.95c7.75-5.71,15.5-11.41,23.32-17,2.3-1.66,4.68-1.31,6.06.58s.93,4.37-1.42,6.1c-6.53,4.82-13.09,9.57-19.64,14.36-2.7,2-2.72,3,0,4.95,6.32,4.45,12.66,8.87,19,13.31a17.75,17.75,0,0,1,1.64,1.22,4.08,4.08,0,0,1,.74,5.7,4,4,0,0,1-5.5.9c-3.36-2.2-6.62-4.55-9.91-6.86q-6.7-4.7-13.39-9.42A9,9,0,0,1,518.92,404.69Z" transform="translate(-480.28 -380.65)"/><path class="cls-1" d="M647.09,400.75c-2.47,7.32-4.93,14.48-7.86,21.47-2,4.75-1.92,4.74-7.34,4.7a2.52,2.52,0,0,1-2.77-1.86c-4-10.67-8.12-21.31-12.18-32-1-2.57-1.85-5.17-2.92-7.7-.59-1.4-.19-1.84,1.18-1.79h.5c7.19-.17,7.23-.18,9.56,6.57,2.69,7.78,5.3,15.59,8,23.42,1.3-.27,1.18-1.39,1.46-2.16,3-8.55,6.08-17.1,9-25.69a2.73,2.73,0,0,1,3.28-2.17c1.71.13,3.25-.22,4.06,2.17,3,9,6.34,17.88,9.56,26.81a1.81,1.81,0,0,0,1,1.34c1.64-4.91,3.29-9.78,4.9-14.66,1.52-4.58,3.05-9.16,4.46-13.78.41-1.35,1-1.94,2.45-1.87a43.06,43.06,0,0,0,5.25,0c2.07-.15,2.65.35,1.83,2.49-4,10.33-7.84,20.71-11.75,31.06-1.05,2.79-2.24,5.54-3.17,8.37a1.74,1.74,0,0,1-2,1.39c-1.5,0-3-.06-4.5,0-1.2.05-1.64-.48-2.1-1.58-3.12-7.45-6.1-15-8.61-22.63A3,3,0,0,0,647.09,400.75Z" transform="translate(-480.28 -380.65)"/><path class="cls-1" d="M589,428.08c-4.67-.19-10.63-1-15.06-6l-.33-.37c-3-3.6-2.88-3.91,1.23-6.21,2.32-1.3,3.57-1.36,5.39,1,3.4,4.5,13.19,5.69,18,2.67a5.63,5.63,0,0,0,3-5.13c-.13-2.29-1.73-3.68-3.77-4.56-3.43-1.49-7.16-1.4-10.74-2.11a29.62,29.62,0,0,1-6.93-2,11.3,11.3,0,0,1-2.56-19.18c6.6-5.55,21.39-5.37,27.84.35.31.28.61.57.9.86,2.78,2.85,2.7,3.12-.68,5-2.13,1.19-3.6,1.7-6-.26-4.19-3.42-9.31-3.73-14.4-1.61a4.72,4.72,0,0,0-3.28,4.57c0,2.26,1.67,3.3,3.56,4,3.87,1.45,8.05,1.18,12,2.21a39.62,39.62,0,0,1,4.31,1.24c5.58,2.15,8.11,5.66,8.22,11.25.11,5.79-2.45,9.82-7.76,12.19C598.56,427.48,595.24,428.09,589,428.08Z" transform="translate(-480.28 -380.65)"/><path class="cls-1" d="M688.51,412.19c3.06-6.81,6.5-13.44,9.24-20.4a74.66,74.66,0,0,1,3.64-7.06,2.73,2.73,0,0,1,.24-.44c1.27-1.61,9.51-.94,10.38.9,2.37,5,4.65,10.11,7,15.15,3.81,8.12,7.6,16.25,11.52,24.31,1,2,.37,2-1.5,2.31-5.21.77-8-1.1-9.93-6.17-3.27-8.53-7.42-16.74-11.23-25.06-.32-.7-.34-1.88-1.35-1.86-.81,0-.88,1.11-1.17,1.75-4.38,9.53-8.78,19.05-13.06,28.63-.86,1.92-1.87,3-4.08,2.65a17.83,17.83,0,0,0-2.5,0c-4.3-.07-4.37.71-2.31-3.84,1-2.28,2.11-4.53,3.17-6.79C687.46,415,687.63,413.43,688.51,412.19Z" transform="translate(-480.28 -380.65)"/><path class="cls-1" d="M706.54,405.15l7.17,15.52c.1.23.17.47.27.7,2.37,5.52,2.37,5.52-3.79,5.51-3.83,0-7.66,0-11.49,0-1.44,0-2-.3-1.28-1.87C700.39,418.66,703.28,412.27,706.54,405.15Z" transform="translate(-480.28 -380.65)"/><path class="cls-1" d="M770.74,391.8c-2.74-5.53-7.62-8-13.6-8.18-6.82-.18-13.65,0-20.47-.08-1.62,0-2.17.48-2.15,2.13.08,6.49,0,13,0,19.47q0,7.61,0,15.23c0,6.74,0,6.68,6.69,6.53,1.72,0,2.12-.72,2.07-2.25-.08-2.58.1-5.17-.07-7.74-.13-2.09.34-2.95,2.68-2.82,3.9.21,7.82.15,11.73,0,5-.2,9.22-2.19,12.06-6.43A15,15,0,0,0,770.74,391.8Zm-14.83,14.87c-1.75,0-3.49,0-5.82,0-1.8-.23-4.86,1.07-6.37-.5s-.35-4.45-.41-6.76c-.06-2.08,0-4.16,0-6.24,0-1.18.26-1.88,1.66-1.85,3.83.07,7.66-.11,11.48.1a7.66,7.66,0,0,1,7.53,7.75C763.82,403.47,760.54,406.55,755.91,406.68Z" transform="translate(-480.28 -380.65)"/></svg>