<svg id="图层_1" data-name="图层 1" xmlns="http://www.w3.org/2000/svg" viewBox="0 0 1395.33 425.92"><defs><style>.cls-1{fill:#d5a24e;}.cls-2{fill:#070237;}</style></defs><title>dforce</title><path id="_复合路径_" data-name="&lt;复合路径&gt;" class="cls-1" d="M855.84,390.47V605.55H819v-76.7q0-18.71-12.89-31.3a44,44,0,0,0-62.28,62.28,39.67,39.67,0,0,0,14.27,9.67,45.79,45.79,0,0,0,17,3.22,41.85,41.85,0,0,0,16.26-3.07l13.19,32.83q-14.12,7.06-32.52,7.06a76.38,76.38,0,0,1-31.14-6.29,75.36,75.36,0,0,1-24.7-17.34A79.92,79.92,0,0,1,700,560.14a87.74,87.74,0,0,1,0-62.9,79.92,79.92,0,0,1,16.26-25.77,75.45,75.45,0,0,1,24.7-17.34,76.38,76.38,0,0,1,31.14-6.29,71.4,71.4,0,0,1,26.39,4.6A80.35,80.35,0,0,1,819,464.1V390.47Z" transform="translate(-252.7 -287.04)"/><path id="_复合路径_2" data-name="&lt;复合路径&gt;" class="cls-2" d="M929.47,427.59v52.16h80.08l9.2,36.82H929.47v89H892.65V390.77h144.51v36.82Z" transform="translate(-252.7 -287.04)"/><path id="_复合路径_3" data-name="&lt;复合路径&gt;" class="cls-2" d="M1121.23,447.84a79.67,79.67,0,0,1,31.6,6.29,80.85,80.85,0,0,1,43.11,43.11,81.77,81.77,0,0,1,0,62.9,80.85,80.85,0,0,1-43.11,43.11,82.53,82.53,0,0,1-63.2,0,80.85,80.85,0,0,1-43.11-43.11,81.76,81.76,0,0,1,0-62.9,80.85,80.85,0,0,1,43.11-43.11A79.66,79.66,0,0,1,1121.23,447.84Zm0,36.82a44,44,0,0,0-31.3,75.17,39.67,39.67,0,0,0,14.27,9.67,45.79,45.79,0,0,0,17,3.22,44.65,44.65,0,0,0,16.88-3.22,43.14,43.14,0,0,0,14.42-9.67,44.07,44.07,0,0,0,0-62.28Q1139,484.66,1121.23,484.66Z" transform="translate(-252.7 -287.04)"/><path id="_复合路径_4" data-name="&lt;复合路径&gt;" class="cls-2" d="M1286.15,452.14a62.91,62.91,0,0,1,24.7-4.6v36.82a42.61,42.61,0,0,0-31.3,12.89q-12.89,13.5-12.89,31.3v77h-36.82V451.83h36.82v12A78.77,78.77,0,0,1,1286.15,452.14Z" transform="translate(-252.7 -287.04)"/><path id="_复合路径_5" data-name="&lt;复合路径&gt;" class="cls-2" d="M1467.63,585.91a81.07,81.07,0,0,1-25.77,17.34,82.53,82.53,0,0,1-63.2,0,80.85,80.85,0,0,1-43.11-43.11,81.76,81.76,0,0,1,0-62.9,80.85,80.85,0,0,1,43.11-43.11,82.54,82.54,0,0,1,63.2,0,81.18,81.18,0,0,1,25.77,17.34l-26.08,26.08a42.61,42.61,0,0,0-31.3-12.89q-17.8,0-31.3,12.89a44.07,44.07,0,0,0,0,62.28,43.08,43.08,0,0,0,14.42,9.67,44.62,44.62,0,0,0,16.88,3.22q18.71,0,31.3-12.89Z" transform="translate(-252.7 -287.04)"/><path id="_复合路径_6" data-name="&lt;复合路径&gt;" class="cls-2" d="M1607.23,547.25h-80.39a38.08,38.08,0,0,0,8.9,12.58,43.08,43.08,0,0,0,14.42,9.67,44.62,44.62,0,0,0,16.88,3.22,43,43,0,0,0,22.4-5.83l38.35,15.34a77.31,77.31,0,0,1-26.69,20.1,81.23,81.23,0,0,1-108.77-42.19,81.76,81.76,0,0,1,0-62.9,80.85,80.85,0,0,1,43.11-43.11,82.54,82.54,0,0,1,63.2,0,80.85,80.85,0,0,1,43.11,43.11,79.67,79.67,0,0,1,6.29,31.6,75.82,75.82,0,0,1-2.15,18.41ZM1567,484.66q-17.8,0-31.3,12.89a41.59,41.59,0,0,0-8.9,12.89h80.39a41.77,41.77,0,0,0-8.9-12.89A42.61,42.61,0,0,0,1567,484.66Z" transform="translate(-252.7 -287.04)"/><g id="_编组_" data-name="&lt;编组&gt;"><g id="_编组_2" data-name="&lt;编组&gt;"><path class="cls-2" d="M406,713H308.45V400.28h36.83V676.13H406c51.8,0,94.66-16.63,127.38-49.43s49.13-76.85,49.13-131.28c0-52-16.49-94-49-124.83-32.74-31-74.46-46.72-124-46.72H308.34V287h101.1c59.28,0,109.52,19.11,149.33,56.81,40.16,38,60.52,89,60.52,151.57,0,64.54-20.15,117.46-59.88,157.29S467.9,713,406,713Z" transform="translate(-252.7 -287.04)"/></g></g><g id="_编组_3" data-name="&lt;编组&gt;"><path class="cls-1" d="M364.37,651.12h0c54.13,0,99.17-14.4,133.86-42.81,35.17-28.79,53-67.47,53-115,0-45.76-17.91-82.82-53.24-110.15-34.65-26.8-78.47-38.66-130.25-38.66h-115V651.12H289V380.27h82.34c20.84,0,40.13,2.69,57.33,8,17,5.25,32.53,11.5,46.08,22,13.32,10.3,23.43,22.49,30,36.22s10,29.73,10,47.27c0,18.42-3.4,35.17-10.11,49.78S488,570.92,474.58,581.87a140.37,140.37,0,0,1-46.7,25.06c-17.67,5.62-37.69,8.47-59.5,8.47l-4,.13Z" transform="translate(-252.7 -287.04)"/></g></svg>