<svg id="图层_1" data-name="图层 1" xmlns="http://www.w3.org/2000/svg" viewBox="0 0 30 30"><defs><style>.cls-1{fill:#49475f;}.cls-2{fill:#fff;}</style></defs><title>icon-medium</title><circle class="cls-1" cx="15" cy="15" r="15"/><path class="cls-2" d="M334.63,447.15l-5.22,8.21-3.73-5.87,3-4.66a.63.63,0,0,1,.67-.24Zm.06,11c0,.48-.43.66-1,.4l-4.07-2,5-7.92Zm-11.24.13a.51.51,0,0,1-.8.47l-4.77-2.28a.94.94,0,0,1-.48-.75v-10.6c0-.38.29-.53.64-.38l5.15,2.48.26.38v10.68Zm5.44-2.07L324.32,454v-5Z" transform="translate(-311.05 -436.68)"/></svg>