<svg id="图层_1" data-name="图层 1" xmlns="http://www.w3.org/2000/svg" viewBox="0 0 30 30"><defs><style>.cls-1{fill:#49475f;}.cls-2{fill:#fff;}</style></defs><title>社区图标-4</title><circle class="cls-1" cx="15" cy="15" r="15"/><path class="cls-2" d="M391.11,452.56a2,2,0,0,0-2-2h0a2,2,0,0,0-1.41.56,10,10,0,0,0-5.41-1.72l.93-4.34,3,.65a1.45,1.45,0,1,0,.15-.7l-3.36-.71a.35.35,0,0,0-.27,0,.32.32,0,0,0-.15.23l-1,4.83a10,10,0,0,0-5.49,1.72,2,2,0,1,0-2.23,3.29,3.65,3.65,0,0,0,0,.61c0,3.11,3.62,5.64,8.09,5.64S390,458.16,390,455a3.8,3.8,0,0,0,0-.61A2,2,0,0,0,391.11,452.56ZM377.24,454a1.44,1.44,0,1,1,1.44,1.44,1.44,1.44,0,0,1-1.44-1.44Zm8.06,3.82a6.07,6.07,0,0,1-6.85,0,.37.37,0,0,1,0-.52h0a.37.37,0,0,1,.52,0h0a5.39,5.39,0,0,0,5.79,0,.37.37,0,0,1,.52,0h0a.4.4,0,0,1,0,.53Zm-.27-2.37a1.44,1.44,0,1,1,1.44-1.44A1.44,1.44,0,0,1,385,455.46Z" transform="translate(-366.88 -437.43)"/></svg>