<svg id="图层_1" data-name="图层 1" xmlns="http://www.w3.org/2000/svg" viewBox="0 0 20.53 18.22"><defs><style>.cls-1{fill:#f69726;}.cls-2{fill:#fff;stroke:#fff;stroke-miterlimit:10;stroke-width:0.25px;}</style></defs><title>错误提示图标</title><path class="cls-1" d="M544.3,373.72l-8.61,14.91a1.66,1.66,0,0,0,1.43,2.48h17.21a1.66,1.66,0,0,0,1.43-2.48l-8.61-14.91A1.66,1.66,0,0,0,544.3,373.72Z" transform="translate(-535.47 -372.9)"/><path class="cls-2" d="M544.76,386.54a1,1,0,1,1,1,1A1,1,0,0,1,544.76,386.54Z" transform="translate(-535.47 -372.9)"/><polygon class="cls-2" points="9.53 7.23 9.47 5.75 11.05 5.75 10.99 7.23 10.77 11.16 9.75 11.16 9.53 7.23"/></svg>