<svg id="图层_1" data-name="图层 1" xmlns="http://www.w3.org/2000/svg" viewBox="0 0 80.75 80.75"><defs><style>.cls-1{fill:#002868;}.cls-2{fill:#fff;}</style></defs><title>TUSD</title><path id="Coin_BG" data-name="Coin BG" class="cls-1" d="M639.85,400.37h0A40.49,40.49,0,0,1,599.47,360h0a40.49,40.49,0,0,1,40.38-40.37h0A40.49,40.49,0,0,1,680.22,360h0A40.49,40.49,0,0,1,639.85,400.37Z" transform="translate(-599.47 -319.62)"/><path id="BG" class="cls-2" d="M660.19,384.22H619.5a3.89,3.89,0,0,1-3.88-3.88v-40.7a3.89,3.89,0,0,1,3.88-3.88h40.7a3.89,3.89,0,0,1,3.88,3.88v40.7A3.89,3.89,0,0,1,660.19,384.22Z" transform="translate(-599.47 -319.62)"/><path class="cls-1" d="M625.07,379.34a.24.24,0,0,1-.23-.24v-6.51a.24.24,0,0,0-.23-.24h-2.3a.24.24,0,0,1-.24-.23v-1.26a.25.25,0,0,1,.24-.24h7.07a.25.25,0,0,1,.24.24v1.26a.24.24,0,0,1-.24.23H627.1a.25.25,0,0,0-.24.24v6.51a.24.24,0,0,1-.23.24Z" transform="translate(-599.47 -319.62)"/><path class="cls-1" d="M636.69,370.86a.24.24,0,0,1,.23-.24h1.54a.25.25,0,0,1,.24.24v4.44c0,2.63-1.49,4.16-3.85,4.16S631,377.93,631,375.3v-4.44a.24.24,0,0,1,.23-.24h1.54a.25.25,0,0,1,.24.24v4.51c0,1.3.67,2.22,1.82,2.22s1.82-.92,1.82-2.22v-4.51Z" transform="translate(-599.47 -319.62)"/><path class="cls-1" d="M645.78,373.46a.33.33,0,0,1-.35-.23,1.76,1.76,0,0,0-1.76-1c-.81,0-1.49.28-1.49.82s.63.83,2,1c2.11.24,3.31.89,3.31,2.55,0,1.88-1.64,2.86-3.75,2.86-1.82,0-3.39-.89-3.63-2.75,0-.18.06-.24.24-.24h1.41a.32.32,0,0,1,.33.22,1.76,1.76,0,0,0,1.8,1.09c.83,0,1.57-.31,1.57-1s-.77-.92-2.31-1.12c-1.77-.23-3-.74-3-2.38s1.4-2.8,3.59-2.8a3.37,3.37,0,0,1,3.63,2.66c0,.18,0,.3-.21.3h-1.41Z" transform="translate(-599.47 -319.62)"/><path class="cls-1" d="M649.26,379.34a.24.24,0,0,1-.23-.24v-8.24a.24.24,0,0,1,.23-.24h3.49a4.37,4.37,0,1,1,0,8.73h-3.49Zm3.49-1.73a2.64,2.64,0,0,0,0-5.26h-1.45a.24.24,0,0,0-.23.24v4.79a.23.23,0,0,0,.23.23h1.46Z" transform="translate(-599.47 -319.62)"/><path id="BG-2" data-name="BG" class="cls-1" d="M662.78,365.81H616.91a.65.65,0,0,1-.65-.65V339.65a3.24,3.24,0,0,1,3.23-3.23h40.7a3.24,3.24,0,0,1,3.23,3.23v25.52A.65.65,0,0,1,662.78,365.81Z" transform="translate(-599.47 -319.62)"/><path id="_" data-name="|" class="cls-2" d="M642.22,360.57H638a.49.49,0,0,1-.48-.48V342.32a.49.49,0,0,1,.48-.48h4.2a.49.49,0,0,1,.48.48v17.77A.49.49,0,0,1,642.22,360.57Z" transform="translate(-599.47 -319.62)"/><path id="_2" data-name="—" class="cls-2" d="M649.37,347H630.32a.49.49,0,0,1-.48-.48v-4.2a.49.49,0,0,1,.48-.48h19.06a.49.49,0,0,1,.48.48v4.2A.49.49,0,0,1,649.37,347Z" transform="translate(-599.47 -319.62)"/></svg>