<svg id="图层_1" data-name="图层 1" xmlns="http://www.w3.org/2000/svg" viewBox="0 0 30 30"><defs><style>.cls-1{fill:#49475f;}.cls-2{fill:#fff;}</style></defs><title>icon-twitter</title><circle class="cls-1" cx="15" cy="15" r="15"/><path class="cls-2" d="M239,449.62c0,6.66-4.37,11.45-10.81,11.66a8.64,8.64,0,0,1-6.25-1.86,7.46,7.46,0,0,0,5.61-1.67,3.64,3.64,0,0,1-3.53-2.48h1.67a4.08,4.08,0,0,1-2.93-4,3.17,3.17,0,0,0,1.67.41,4.12,4.12,0,0,1-1.25-5.2,10.88,10.88,0,0,0,7.92,4.15c-1.05-4.15,4.37-6.25,6.66-3.53a8.07,8.07,0,0,0,2.48-1.05,2.8,2.8,0,0,1-1.67,2.07,3.56,3.56,0,0,0,2.07-.62A4,4,0,0,1,239,449.62Z" transform="translate(-215.62 -437.68)"/></svg>