<svg id="图层_1" data-name="图层 1" xmlns="http://www.w3.org/2000/svg" xmlns:xlink="http://www.w3.org/1999/xlink" viewBox="0 0 70 70"><defs><style>.cls-1{fill:url(#未命名的渐变_14);}.cls-2{fill:#fdfdfd;}</style><linearGradient id="未命名的渐变_14" x1="17.5" y1="4.68" x2="52.5" y2="65.32" gradientUnits="userSpaceOnUse"><stop offset="0" stop-color="#00eba9"/><stop offset="1" stop-color="#02c18c"/></linearGradient></defs><title>Home_TUSD logo</title><circle class="cls-1" cx="35" cy="35" r="35"/><path class="cls-2" d="M372.88,235.12a32.83,32.83,0,0,0-9.51-2.07c-3.08-.3-3-.27-3-3.41,0-1,.33-1.18,1.23-1.17,3,.05,5.95,0,8.92,0,.79,0,1.08-.22,1.06-1-.05-1.74-.07-3.49,0-5.24,0-1-.3-1.27-1.28-1.26-4.77,0-9.53,0-14.3,0s-9.53,0-14.3,0c-1,0-1.34.22-1.29,1.25.08,1.69.07,3.4,0,5.09,0,.9.31,1.12,1.15,1.11,2.31,0,4.62,0,6.94,0,3.09,0,3.06,0,3.08,3.1,0,.93-.18,1.28-1.2,1.36a38.05,38.05,0,0,0-11.63,2.2c-1.32.53-3.06,1-3,2.77s1.71,2.11,3,2.62a37.66,37.66,0,0,0,11.49,2.18c1,.07,1.35.32,1.34,1.39-.06,4.29,0,8.59-.06,12.88,0,1.16.35,1.43,1.43,1.38,2-.08,4.06-.07,6.09,0,1,0,1.29-.24,1.27-1.25-.06-4.34,0-8.68,0-13,0-1.06.3-1.32,1.33-1.4a36.5,36.5,0,0,0,11.34-2.25c1.24-.51,2.82-1,2.8-2.63S374.12,235.64,372.88,235.12Zm.11,3.33a27.08,27.08,0,0,1-6.62,1.37,89.1,89.1,0,0,1-10.58.54A71.52,71.52,0,0,1,340.19,239a15.92,15.92,0,0,1-2.27-.77c-.64-.25-.6-.62-.07-1a13.77,13.77,0,0,1,3.42-1.66,42.61,42.61,0,0,1,9.26-1.89c.87-.1,1,.25,1,1,0,1.27.1,2.54.11,3.81,0,.59.18.83.8.84q3.46,0,6.92.16c.83,0,1-.32,1-1.09,0-1.27,0-2.54,0-3.82,0-.49,0-1,.73-.87,4,.47,8,1.15,11.69,3.06l.24.14c.35.23.9.4.88.82S373.39,238.3,373,238.45Z" transform="translate(-320.73 -201.63)"/></svg>