<svg id="图层_1" data-name="图层 1" xmlns="http://www.w3.org/2000/svg" xmlns:xlink="http://www.w3.org/1999/xlink" viewBox="0 0 70 70"><defs><style>.cls-1{fill:url(#未命名的渐变_9);}.cls-2{fill:#fff;fill-rule:evenodd;}</style><linearGradient id="未命名的渐变_9" x1="17.5" y1="4.68" x2="52.5" y2="65.32" gradientUnits="userSpaceOnUse"><stop offset="0" stop-color="#343068"/><stop offset="1" stop-color="#23204f"/></linearGradient></defs><title>Home_USDx logo</title><circle class="cls-1" cx="35" cy="35" r="35"/><path class="cls-2" d="M238.89,217.28h-1.32v8.77c2.51.06,5-.11,6.65.08l-.11,5.2s-5.15.28-7.28.31c-1.63,0-1,.92-.32,1.06a40.38,40.38,0,0,1,5.91,1.69c1.3.63,2.12,1.13,2.53,4.22s-.69,7.59-7.07,7.71h-.32v9.28h1.32a19.16,19.16,0,1,0,0-38.32Z" transform="translate(-201.05 -201.63)"/><path class="cls-2" d="M229,246l.21-5.28a67.85,67.85,0,0,0,8-.09c1.37-.19.63-.84.63-.84s-4.74-.86-6.33-1.69-3.43-2.5-2.43-7.95c.52-2.81,3.4-3.9,6.65-4.06v-8.79H223.69a3.64,3.64,0,0,0-3.64,3.64v31a3.64,3.64,0,0,0,3.64,3.64h12.09v-9.3C231.07,246.15,229,246,229,246Z" transform="translate(-201.05 -201.63)"/></svg>