<svg id="图层_1" data-name="图层 1" xmlns="http://www.w3.org/2000/svg" viewBox="0 0 29.93 27.76"><defs><style>.cls-1{fill:#e2761b;stroke:#e2761b;}.cls-1,.cls-10,.cls-2,.cls-3,.cls-4,.cls-5,.cls-6,.cls-7,.cls-8,.cls-9{stroke-linecap:round;stroke-linejoin:round;stroke-width:0.12px;}.cls-2{fill:#e4761b;stroke:#e4761b;}.cls-3{fill:#d7c1b3;stroke:#d7c1b3;}.cls-4{fill:#233447;stroke:#233447;}.cls-5{fill:#cd6116;stroke:#cd6116;}.cls-6{fill:#e4751f;stroke:#e4751f;}.cls-7{fill:#f6851b;stroke:#f6851b;}.cls-8{fill:#c0ad9e;stroke:#c0ad9e;}.cls-9{fill:#161616;stroke:#161616;}.cls-10{fill:#763d16;stroke:#763d16;}</style></defs><title>logo-metamask</title><path class="cls-1" d="M28.42,1.18,16.79,9.82l2.15-5.1Z" transform="translate(-0.03 -1.12)"/><path class="cls-2" d="M1.57,1.18,13.11,9.9l-2-5.18Z" transform="translate(-0.03 -1.12)"/><path class="cls-2" d="M24.24,21.21,21.14,26l6.63,1.82,1.91-6.47Z" transform="translate(-0.03 -1.12)"/><path class="cls-2" d="M.34,21.31l1.89,6.47L8.86,26l-3.1-4.75Z" transform="translate(-0.03 -1.12)"/><path class="cls-2" d="M8.49,13.19,6.64,16l6.58.29L13,9.2Z" transform="translate(-0.03 -1.12)"/><path class="cls-2" d="M21.5,13.19,16.94,9.12l-.15,7.16L23.36,16Z" transform="translate(-0.03 -1.12)"/><path class="cls-2" d="M8.86,26l4-1.93L9.4,21.36Z" transform="translate(-0.03 -1.12)"/><path class="cls-2" d="M17.17,24l4,1.93-.55-4.6Z" transform="translate(-0.03 -1.12)"/><path class="cls-3" d="M21.14,26l-4-1.93.32,2.58,0,1.09Z" transform="translate(-0.03 -1.12)"/><path class="cls-3" d="M8.86,26l3.68,1.74,0-1.09L12.81,24Z" transform="translate(-0.03 -1.12)"/><path class="cls-4" d="M12.6,19.65l-3.3-1,2.33-1.06Z" transform="translate(-0.03 -1.12)"/><path class="cls-4" d="M17.39,19.65l1-2,2.34,1.06Z" transform="translate(-0.03 -1.12)"/><path class="cls-5" d="M8.86,26l.56-4.75-3.66.11Z" transform="translate(-0.03 -1.12)"/><path class="cls-5" d="M20.58,21.21,21.14,26l3.1-4.64Z" transform="translate(-0.03 -1.12)"/><path class="cls-5" d="M23.36,16l-6.57.29.61,3.38,1-2,2.34,1.06Z" transform="translate(-0.03 -1.12)"/><path class="cls-5" d="M9.3,18.68l2.34-1.06,1,2,.62-3.38L6.64,16Z" transform="translate(-0.03 -1.12)"/><path class="cls-6" d="M6.64,16,9.4,21.36l-.09-2.68Z" transform="translate(-0.03 -1.12)"/><path class="cls-6" d="M20.71,18.68l-.12,2.68L23.36,16Z" transform="translate(-0.03 -1.12)"/><path class="cls-6" d="M13.22,16.27l-.62,3.38.77,4,.18-5.25Z" transform="translate(-0.03 -1.12)"/><path class="cls-6" d="M16.79,16.27l-.32,2.1.14,5.26.78-4Z" transform="translate(-0.03 -1.12)"/><path class="cls-7" d="M17.4,19.65l-.78,4,.56.39,3.41-2.67.12-2.68Z" transform="translate(-0.03 -1.12)"/><path class="cls-7" d="M9.31,18.68l.09,2.68L12.81,24l.56-.39-.77-4Z" transform="translate(-0.03 -1.12)"/><path class="cls-8" d="M17.46,27.7l0-1.09-.29-.26H12.79l-.27.26,0,1.09L8.86,26,10.15,27l2.61,1.81h4.48L19.85,27,21.14,26Z" transform="translate(-0.03 -1.12)"/><path class="cls-9" d="M17.17,24l-.56-.39H13.37l-.56.39-.29,2.58.27-.26H17.2l.29.26Z" transform="translate(-0.03 -1.12)"/><path class="cls-10" d="M28.91,10.38l1-4.77L28.42,1.18,17.17,9.53l4.33,3.66L27.62,15,29,13.4,28.39,13l.94-.85-.72-.56.94-.71Z" transform="translate(-0.03 -1.12)"/><path class="cls-10" d="M.09,5.61l1,4.77-.63.47.94.71-.71.56.94.85L1,13.4,2.37,15l6.12-1.79,4.33-3.66L1.57,1.18Z" transform="translate(-0.03 -1.12)"/><path class="cls-7" d="M27.62,15,21.5,13.19,23.36,16l-2.77,5.38,3.65,0h5.44Z" transform="translate(-0.03 -1.12)"/><path class="cls-7" d="M8.49,13.19,2.37,15l-2,6.34H5.76l3.64,0L6.64,16Z" transform="translate(-0.03 -1.12)"/><path class="cls-7" d="M16.79,16.27l.39-6.75L19,4.72H11.06l1.75,4.81.41,6.75.14,2.13v5.24h3.24l0-5.24Z" transform="translate(-0.03 -1.12)"/></svg>