<svg id="图层_1" data-name="图层 1" xmlns="http://www.w3.org/2000/svg" viewBox="0 0 67.3 67.41"><defs><style>.cls-1{fill:#e6e6e6;}.cls-2{fill:#5a5564;}.cls-3{fill:#f09242;}.cls-4{fill:#282138;}.cls-5,.cls-6{fill:#fff;isolation:isolate;}.cls-5{opacity:0.1;}.cls-6{opacity:0.2;}</style></defs><title>WBTC-logo</title><path id="Fill-4" class="cls-1" d="M294.18,199.36a33.7,33.7,0,1,1,33.65-33.7,33.72,33.72,0,0,1-33.65,33.7" transform="translate(-260.53 -131.95)"/><path id="Fill-6" class="cls-2" d="M315.41,146.1,313.54,148a26.23,26.23,0,0,1,0,35.36l1.87,1.87a28.87,28.87,0,0,0,0-39.11" transform="translate(-260.53 -131.95)"/><path id="Fill-8" class="cls-2" d="M276.53,146.27a26.13,26.13,0,0,1,35.3,0l1.87-1.87a28.76,28.76,0,0,0-39,0Z" transform="translate(-260.53 -131.95)"/><path id="Fill-10" class="cls-2" d="M274.82,183.33a26.23,26.23,0,0,1,0-35.36L273,146.1a28.88,28.88,0,0,0,0,39.11Z" transform="translate(-260.53 -131.95)"/><path id="Fill-12" class="cls-2" d="M311.83,185a26.13,26.13,0,0,1-35.3,0l-1.87,1.87a28.76,28.76,0,0,0,39,0Z" transform="translate(-260.53 -131.95)"/><path id="Fill-14" class="cls-2" d="M315.41,146.1,313.54,148a26.23,26.23,0,0,1,0,35.36l1.87,1.87a28.87,28.87,0,0,0,0-39.11" transform="translate(-260.53 -131.95)"/><path id="Fill-16" class="cls-2" d="M274.82,183.33a26.23,26.23,0,0,1,0-35.36L273,146.1a28.88,28.88,0,0,0,0,39.11Z" transform="translate(-260.53 -131.95)"/><path id="Fill-18" class="cls-2" d="M311.83,185a26.13,26.13,0,0,1-35.3,0l-1.87,1.87a28.76,28.76,0,0,0,39,0Z" transform="translate(-260.53 -131.95)"/><path id="Fill-20" class="cls-3" d="M299.78,160.94c0,3.68-5.78,3.25-7.62,3.25v-6.51c1.84,0,7.61-.58,7.61,3.26m1.51,10.13c0,4-6.92,3.59-9.13,3.59v-7.18c2.21,0,9.13-.63,9.13,3.59m4.56-11.58c-.37-3.86-3.7-5.16-7.9-5.53V148.6H294.7v5.22c-.86,0-1.73,0-2.6,0v-5.25h-3.25v5.36l-2.07,0v0h-4.49v3.48s2.41,0,2.37,0a1.68,1.68,0,0,1,1.87,1.43v14.68a1.15,1.15,0,0,1-1.22,1.08s-2.37,0-2.37,0l-.65,3.89h4.24l2.33,0V184h3.25V178.6l2.6,0V184h3.26v-5.41c5.47-.31,9.31-1.69,9.79-6.84.39-4.15-1.56-6-4.67-6.75a5,5,0,0,0,2.8-5.48" transform="translate(-260.53 -131.95)"/><path id="Fill-22" class="cls-4" d="M294.18,134.6a31.05,31.05,0,1,0,31,31.05,31.06,31.06,0,0,0-31-31.05m0,64.76a33.7,33.7,0,1,1,33.65-33.7,33.72,33.72,0,0,1-33.65,33.7" transform="translate(-260.53 -131.95)"/><path id="Fill-40" class="cls-5" d="M294.18,131.95a33.41,33.41,0,0,0-18.41,5.51l1.91,1.92a31,31,0,0,1,42.73,42.8l1.91,1.92a33.69,33.69,0,0,0-28.14-52.15" transform="translate(-260.53 -131.95)"/><path id="Fill-34" class="cls-6" d="M303.06,165a5,5,0,0,0,2.8-5.48c-.37-3.86-3.7-5.16-7.9-5.53V148.6H294.7v5.22c-.86,0-1.73,0-2.6,0v-5.25h-3.25v5.36l-2.07,0v0h-1.29l6.69,6.71v-3c1.84,0,7.61-.58,7.61,3.26,0,2.22-2.1,2.94-4.17,3.17l11,11a7.28,7.28,0,0,0,1.11-3.42c.39-4.15-1.56-6-4.67-6.75" transform="translate(-260.53 -131.95)"/><path id="Fill-36" class="cls-5" d="M279.24,140.95l1.93,1.93a26.12,26.12,0,0,1,30.66,3.39l1.87-1.87a28.74,28.74,0,0,0-34.46-3.45" transform="translate(-260.53 -131.95)"/><path id="Fill-38" class="cls-5" d="M313.54,148a26.22,26.22,0,0,1,3.38,30.71l1.93,1.93a28.85,28.85,0,0,0-3.44-34.52Z" transform="translate(-260.53 -131.95)"/></svg>