<?xml version="1.0" encoding="utf-8"?>
<!-- Generator: Adobe Illustrator 21.0.0, SVG Export Plug-In . SVG Version: 6.00 Build 0)  -->
<svg version="1.1" id="图层_1" xmlns="http://www.w3.org/2000/svg" xmlns:xlink="http://www.w3.org/1999/xlink" x="0px" y="0px"
	 viewBox="0 0 30 30" style="enable-background:new 0 0 30 30;" xml:space="preserve">
<style type="text/css">
	.st0{fill:#49475F;}
	.st1{fill:#FFFFFF;}
</style>
<title>logo-weixin</title>
<circle class="st0" cx="15" cy="15" r="15"/>
<path class="st1" d="M18.6,11.7c0.2,0,0.5,0,0.7,0c-0.6-2.9-3.8-5.1-7.3-5.1c-4,0-7.2,2.7-7.2,6.2c0.1,2,1.2,3.9,2.9,4.9L7,19.9
	l2.5-1.3c0.8,0.2,1.7,0.3,2.5,0.4h0.7c-0.1-0.5-0.2-1-0.2-1.5C12.6,14.2,15.3,11.6,18.6,11.7C18.6,11.7,18.6,11.7,18.6,11.7z
	 M14.7,9.7c0.5-0.1,0.9,0.3,1,0.8c0.1,0.5-0.3,0.9-0.8,1c-0.1,0-0.1,0-0.2,0c-0.5,0.1-1-0.2-1.1-0.7c-0.1-0.5,0.2-1,0.7-1.1
	C14.5,9.7,14.6,9.7,14.7,9.7z M9.7,11.5c-0.5,0.1-1-0.2-1.1-0.7c-0.1-0.5,0.2-1,0.7-1.1c0.1,0,0.2,0,0.3,0c0.5,0.1,0.9,0.5,0.8,1
	C10.4,11.1,10.1,11.5,9.7,11.5z"/>
<path class="st1" d="M25.2,17.4c0-2.9-2.9-5.3-6.2-5.3c-3.5,0-6.2,2.4-6.2,5.3s2.7,5.3,6.2,5.3c0.7,0,1.5-0.2,2.2-0.4l2,1.1
	l-0.5-1.8C24.2,20.6,25.1,19.1,25.2,17.4z M17.1,16.4c-0.4,0-0.7-0.3-0.7-0.7s0.3-0.7,0.7-0.7c0.4-0.1,0.8,0.2,0.9,0.6
	c0.1,0.4-0.2,0.8-0.6,0.9C17.3,16.5,17.2,16.5,17.1,16.4z M21.1,16.4c-0.4,0-0.7-0.3-0.7-0.7s0.3-0.7,0.7-0.7
	c0.4-0.1,0.8,0.2,0.9,0.6c0.1,0.4-0.2,0.8-0.6,0.9C21.3,16.5,21.2,16.5,21.1,16.4z"/>
</svg>
