<svg id="图层_1" data-name="图层 1" xmlns="http://www.w3.org/2000/svg" xmlns:xlink="http://www.w3.org/1999/xlink" viewBox="0 0 70 70"><defs><style>.cls-1{fill:url(#未命名的渐变_19);}.cls-2{fill:#fff;}.cls-3{fill:#dce9fe;}.cls-4{fill:#f1f6ff;}.cls-5{fill:#d6e6fe;}.cls-6{fill:#bbd5fc;}.cls-7{fill:#a3c5fd;}.cls-8{fill:#d8e7fe;}.cls-9{fill:#90bafc;}</style><linearGradient id="未命名的渐变_19" x1="17.5" y1="4.68" x2="52.5" y2="65.32" gradientUnits="userSpaceOnUse"><stop offset="0" stop-color="#6ca0ff"/><stop offset="1" stop-color="#3180f8"/></linearGradient></defs><title>Home_WETH logo</title><circle class="cls-1" cx="35" cy="35" r="35"/><polygon class="cls-2" points="47.13 32.8 35 39.77 35 41.01 48.23 32.9 35 12.51 35 13.76 47.13 32.8"/><polygon class="cls-2" points="35 44.95 46.34 37.96 35 55.44 35 57.49 48.23 35.54 35 43.69 35 44.95"/><polygon class="cls-3" points="47.13 32.8 35 13.76 35 28.62 47.13 32.8"/><polygon class="cls-4" points="35 28.62 35 39.77 47.13 32.8 35 28.62"/><polygon class="cls-5" points="46.34 37.96 35 44.95 35 55.44 46.34 37.96"/><polygon class="cls-6" points="35 41.01 35 39.77 22.88 32.8 35 13.76 35 12.51 21.77 32.9 35 41.01"/><polygon class="cls-6" points="23.66 37.96 35 44.95 35 43.69 21.77 35.54 35 57.49 35 55.44 23.66 37.96"/><polygon class="cls-7" points="35 13.76 22.88 32.8 35 28.62 35 13.76"/><polygon class="cls-8" points="22.88 32.8 35 39.77 35 28.62 22.88 32.8"/><polygon class="cls-9" points="35 55.44 35 44.95 23.66 37.96 35 55.44"/></svg>